<?xml version="1.0" encoding="UTF-8" standalone="no"?>
<!DOCTYPE svg PUBLIC "-//W3C//DTD SVG 1.1//EN" "http://www.w3.org/Graphics/SVG/1.1/DTD/svg11.dtd">
<svg width="100%" height="100%" viewBox="0 0 63 63" version="1.1" xmlns="http://www.w3.org/2000/svg" xmlns:xlink="http://www.w3.org/1999/xlink" xml:space="preserve" xmlns:serif="http://www.serif.com/" style="fill-rule:evenodd;clip-rule:evenodd;stroke-miterlimit:10;">
    <g transform="matrix(1,0,0,1,-1383.81,-631.646)">
        <g transform="matrix(0.249439,0,0,0.259518,1393.06,640.37)">
            <g id="IG" transform="matrix(4.009,0,0,3.85329,-12.8268,-10.3051)">
                <path d="M16,46L34,46C40.627,46 46,40.627 46,34L46,16C46,9.373 40.627,4 34,4L16,4C9.373,4 4,9.373 4,16L4,34C4,40.627 9.373,46 16,46Z" style="fill:none;fill-rule:nonzero;stroke:white;stroke-width:2px;"/>
                <path d="M25,15C19.514,15 15,19.514 15,25C15,30.486 19.514,35 25,35C30.486,35 35,30.486 35,25C35,19.514 30.486,15 25,15Z" style="fill:none;fill-rule:nonzero;stroke:white;stroke-width:2px;"/>
                <path d="M37,11C35.903,11 35,11.903 35,13C35,14.097 35.903,15 37,15C38.097,15 39,14.097 39,13C39,11.903 38.097,11 37,11Z" style="fill:none;fill-rule:nonzero;stroke:white;stroke-width:1px;stroke-linejoin:round;stroke-miterlimit:2;"/>
            </g>
        </g>
    </g>
</svg>
