<?xml version="1.0" encoding="UTF-8" standalone="no"?>
<!DOCTYPE svg PUBLIC "-//W3C//DTD SVG 1.1//EN" "http://www.w3.org/Graphics/SVG/1.1/DTD/svg11.dtd">
<svg width="100%" height="100%" viewBox="0 0 38 44" version="1.1" xmlns="http://www.w3.org/2000/svg" xmlns:xlink="http://www.w3.org/1999/xlink" xml:space="preserve" xmlns:serif="http://www.serif.com/" style="fill-rule:evenodd;clip-rule:evenodd;stroke-linejoin:round;stroke-miterlimit:2;">
    <g transform="matrix(1,0,0,1,-1490.68,-640.37)">
        <g transform="matrix(0.249439,0,0,0.259518,1393.06,640.37)">
            <g transform="matrix(8.4531,0,0,8.4531,365.986,-16.9062)">
                <path d="M10.324,9.736C10.063,9.56 9.878,9.287 9.768,8.916C9.658,8.545 9.603,8.052 9.603,7.437L9.603,6.598C9.603,5.976 9.666,5.477 9.791,5.1C9.917,4.723 10.113,4.448 10.38,4.276C10.647,4.103 10.997,4.017 11.431,4.017C11.858,4.017 12.2,4.105 12.458,4.281C12.716,4.457 12.904,4.732 13.023,5.105C13.142,5.479 13.202,5.977 13.202,6.598L13.202,7.437C13.202,8.053 13.144,8.547 13.028,8.921C12.912,9.295 12.723,9.568 12.463,9.741C12.203,9.914 11.849,10 11.403,10C10.945,10 10.585,9.912 10.324,9.736ZM11.785,8.832C11.857,8.644 11.893,8.336 11.893,7.909L11.893,6.109C11.893,5.694 11.857,5.391 11.785,5.2C11.713,5.008 11.585,4.913 11.403,4.913C11.227,4.913 11.103,5.009 11.031,5.2C10.959,5.392 10.923,5.695 10.923,6.109L10.923,7.909C10.923,8.336 10.957,8.644 11.027,8.832C11.096,9.02 11.222,9.115 11.404,9.115C11.585,9.114 11.713,9.02 11.785,8.832ZM7.158,7.343L5.679,2L6.97,2L7.488,4.422C7.62,5.018 7.717,5.527 7.78,5.948L7.818,5.948C7.862,5.647 7.959,5.141 8.11,4.431L8.647,2L9.938,2L8.44,7.343L8.44,9.906L7.158,9.906L7.158,7.343ZM17.401,4.13L17.401,9.906L16.383,9.906L16.27,9.199L16.242,9.199C15.966,9.733 15.551,10 14.999,10C14.616,10 14.333,9.874 14.151,9.623C13.969,9.372 13.878,8.979 13.878,8.445L13.878,4.13L15.178,4.13L15.178,8.37C15.178,8.628 15.206,8.811 15.263,8.921C15.32,9.031 15.414,9.086 15.546,9.086C15.659,9.086 15.767,9.052 15.871,8.982C15.975,8.913 16.052,8.825 16.102,8.718L16.102,4.13L17.401,4.13Z" style="fill:white;fill-rule:nonzero;"/>
                <g>
                    <path d="M17.333,15.792C17.277,15.726 17.191,15.693 17.074,15.693C16.957,15.693 16.871,15.728 16.815,15.796C16.759,15.865 16.722,15.978 16.704,16.134C16.685,16.29 16.676,16.528 16.676,16.846L16.676,17.196L17.479,17.196L17.479,16.846C17.479,16.533 17.468,16.296 17.447,16.134C17.427,15.972 17.389,15.858 17.333,15.792ZM13.851,15.86C13.79,15.773 13.704,15.729 13.592,15.729C13.486,15.729 13.388,15.771 13.298,15.856C13.208,15.941 13.144,16.05 13.107,16.182L13.107,18.95C13.155,19.035 13.217,19.098 13.294,19.141C13.371,19.183 13.454,19.205 13.545,19.205C13.662,19.205 13.754,19.163 13.823,19.078C13.892,18.993 13.941,18.85 13.97,18.648C13.999,18.447 14.014,18.168 14.014,17.813L14.014,17.185C14.014,16.803 14.002,16.509 13.978,16.302C13.954,16.095 13.911,15.947 13.851,15.86Z" style="fill:white;fill-rule:nonzero;"/>
                    <path d="M19,11L5,11C3.9,11 3,11.9 3,13L3,20C3,21.1 3.9,22 5,22L19,22C20.1,22 21,21.1 21,20L21,13C21,11.9 20.1,11 19,11ZM7.649,19.92L6.576,19.92L6.576,14.13L5.486,14.13L5.486,13.247L8.739,13.247L8.739,14.13L7.649,14.13L7.649,19.92ZM11.388,19.92L10.528,19.92L10.433,19.323L10.409,19.323C10.175,19.775 9.825,20 9.358,20C9.034,20 8.796,19.894 8.642,19.682C8.488,19.47 8.411,19.138 8.411,18.688L8.411,15.045L9.51,15.045L9.51,18.625C9.51,18.842 9.534,18.998 9.582,19.09C9.63,19.183 9.709,19.229 9.821,19.229C9.916,19.229 10.008,19.2 10.095,19.141C10.183,19.083 10.247,19.008 10.29,18.918L10.29,15.044L11.388,15.044L11.388,19.92ZM15.119,17.876C15.119,18.603 15.031,19.137 14.856,19.479C14.681,19.821 14.408,19.992 14.037,19.992C13.83,19.992 13.642,19.944 13.472,19.849C13.302,19.754 13.175,19.624 13.09,19.459L13.066,19.459L12.955,19.92L12.048,19.92L12.048,13L13.106,13L13.106,15.569L13.114,15.569C13.209,15.383 13.345,15.234 13.52,15.12C13.695,15.006 13.883,14.949 14.085,14.949C14.345,14.949 14.549,15.018 14.697,15.156C14.845,15.294 14.953,15.517 15.019,15.824C15.085,16.132 15.118,16.559 15.118,17.105L15.118,17.876L15.119,17.876ZM18.514,17.848L16.677,17.848L16.677,18.095C16.677,18.408 16.686,18.643 16.705,18.799C16.724,18.955 16.762,19.07 16.82,19.141C16.878,19.213 16.968,19.248 17.09,19.248C17.254,19.248 17.367,19.184 17.428,19.057C17.489,18.93 17.522,18.718 17.527,18.421L18.474,18.477C18.479,18.519 18.482,18.578 18.482,18.652C18.482,19.103 18.359,19.44 18.112,19.662C17.865,19.885 17.517,19.996 17.066,19.996C16.525,19.996 16.146,19.826 15.928,19.487C15.71,19.148 15.602,18.623 15.602,17.912L15.602,17.06C15.602,16.328 15.715,15.794 15.94,15.457C16.165,15.12 16.551,14.952 17.097,14.952C17.473,14.952 17.762,15.021 17.964,15.159C18.165,15.297 18.307,15.512 18.39,15.803C18.472,16.095 18.513,16.498 18.513,17.012L18.513,17.848L18.514,17.848Z" style="fill:white;fill-rule:nonzero;"/>
                </g>
            </g>
        </g>
    </g>
</svg>
